<?xml version="1.0" encoding="UTF-8"?>
<svg xmlns="http://www.w3.org/2000/svg" viewBox="0 0 149 61" width="596" height="244">
  <defs>
    <style>
      .cls-1 {
        fill: #231f20;
        stroke-width: 0px;
      }
    </style>
  </defs>
  <path class="cls-1" d="m143.38,20.34c-3.75-4.23-8.63-6.35-14.67-6.35-3.91,0-7.41.97-10.5,2.91-3.09,1.95-5.48,4.66-7.17,8.15-1.69,3.5-2.54,7.42-2.54,11.77v1c0,6.98,1.88,12.6,5.64,16.83,3.76,4.23,8.64,6.35,14.65,6.35,3.94,0,7.45-.95,10.52-2.85,3.07-1.9,5.46-4.6,7.15-8.11,1.69-3.51,2.54-7.45,2.54-11.84v-1.04c0-6.98-1.87-12.59-5.62-16.83h0Zm.63,17.46c0,5.7-1.4,10.29-4.21,13.77-2.81,3.48-6.48,5.22-11,5.22s-8.24-1.74-11.04-5.22c-2.81-3.48-4.21-7.93-4.21-13.34v-.92c0-5.67,1.41-10.26,4.23-13.77s6.47-5.26,10.94-5.26c2.99,0,5.64.78,7.96,2.36,2.32,1.58,4.12,3.8,5.41,6.69,1.29,2.88,1.93,6.05,1.93,9.52v.96h-.01Zm-116.16-6.94c2.02-1.12,2.77-2.49,2.77-5.06v-11.44h-4.75v12.61l-.12.06-20.91,11.72V0H0v61h4.84v-17.21l8.53-4.77.12.16,13.86,21.82h5.45l-15.58-24.15,10.63-6.01h0Zm72.14,25.8c-2.12,0-3.64-.62-4.55-1.85-.91-1.23-1.36-3.1-1.36-5.62v-30.73h9.39v-4.1h-9.39V2.95h-5.03v11.4h-8.34v4.1h8.34v30.73c0,3.88.78,6.83,2.35,8.82,1.57,2,4.07,3,7.5,3,2.26,0,4.05-.24,5.36-.71l-.21-4.07c-1.87.28-3.23.42-4.07.42h.01ZM57.36,13.99c-3.91,0-7.41.97-10.5,2.91-3.09,1.95-5.48,4.66-7.17,8.15-1.69,3.5-2.54,7.42-2.54,11.77v1c0,6.98,1.88,12.6,5.64,16.83,3.76,4.23,8.64,6.35,14.65,6.35,3.94,0,7.45-.95,10.52-2.85,3.07-1.9,5.46-4.6,7.15-8.11,1.69-3.51,2.54-7.45,2.54-11.84v-1.04c0-6.98-1.87-12.59-5.62-16.83-3.75-4.23-8.63-6.35-14.67-6.35h0Zm15.3,23.8c0,5.7-1.4,10.29-4.21,13.77-2.81,3.48-6.48,5.22-11,5.22s-8.24-1.74-11.04-5.22c-2.81-3.48-4.21-7.93-4.21-13.34v-.92c0-5.67,1.41-10.26,4.23-13.77,2.82-3.51,6.47-5.26,10.94-5.26,2.99,0,5.64.78,7.96,2.36,2.32,1.58,4.12,3.8,5.41,6.69,1.29,2.88,1.93,6.05,1.93,9.52v.96h-.01Z"/>
</svg>
